<?xml version="1.0" encoding="utf-8"?>
<!-- Generator: Adobe Illustrator 26.0.3, SVG Export Plug-In . SVG Version: 6.00 Build 0)  -->
<svg version="1.0" id="Layer_1" xmlns="http://www.w3.org/2000/svg" xmlns:xlink="http://www.w3.org/1999/xlink" x="0px" y="0px"
	 viewBox="0 0 1251.7 896.1" style="enable-background:new 0 0 1251.7 896.1;" xml:space="preserve">
<style type="text/css">
	.st0{clip-path:url(#SVGID_00000122691699418138292330000006112141147720615868_);}
	.st1{fill:#39BCDB;}
	.st2{fill:#FFFFFF;}
	.st3{fill:#8C7AB7;}
	.st4{fill:url(#SVGID_00000009553497831191076260000006097977700813007035_);}
	.st5{fill:url(#SVGID_00000047062544371519667210000010387941982154501298_);}
	.st6{opacity:0.5;}
	.st7{clip-path:url(#SVGID_00000055679371679909395200000008700612596266934965_);}
	.st8{fill:#A794C6;}
	.st9{fill:#5C4998;}
</style>
<g>
	<defs>
		<rect id="SVGID_1_" x="268.5" y="90.7" width="714.7" height="714.7"/>
	</defs>
	<clipPath id="SVGID_00000132801979269337085580000000538142647701171880_">
		<use xlink:href="#SVGID_1_"  style="overflow:visible;"/>
	</clipPath>
	<g style="clip-path:url(#SVGID_00000132801979269337085580000000538142647701171880_);">
		<path class="st1" d="M938.4,317.1l-43.3-15.1c-7.9-16.3-17.5-31.7-28.6-46.1c-0.8-1.2-1.6-2-2-2.8c10.7-3.9,20.4-10,28.6-17.9
			C912.3,260,927.6,287.6,938.4,317.1z M758.9,128.7c-5.6,9.9-9.2,20.9-10.7,32.2c-0.8-0.4-2-0.8-2.8-1.2
			c-37.9-16.7-78.9-25.2-120.3-25c-90.8,0.1-176.8,40.9-234.3,111.2l-11.5,2.4c-12.5,2.6-18.9,10.2-19.1,23v18.3l-40.5,7.5
			c54.8-119.3,174.1-195.8,305.4-195.7C671.1,101.3,716.7,110.6,758.9,128.7z M410.7,649.3c-10,5.5-18.6,13.1-25.4,22.2
			c-27.6-28.2-50-61-66.3-96.9l41.3,9.1v10.3c-0.1,12.8,6.1,20.6,18.7,23.4l5.6,1.2c7.4,10.3,15.7,20,24.6,29L410.7,649.3z
			 M940.8,550.4c-47.9,133.2-174.2,222-315.7,222c-31.3,0.2-62.5-4.3-92.5-13.1c4.6-10.4,7-21.6,7.1-33c0.4,0,1.2,0.4,1.6,0.4
			c27.2,8,55.4,12,83.8,11.9c57.8-0.1,111.2-15.5,160.3-46.1c49-30.6,86.3-71.9,111.7-123.8l0.4-0.4L940.8,550.4z"/>
		<path class="st2" d="M668.4,563.5l100.8,22.2l-156.4,64.8c-0.8,0-1.2,0.4-2,0.4c-3.9-0.1-5.9-2.1-6-6V227.6c0.1-3.9,2.1-5.9,6-5.9
			c0.7-0.1,1.4,0.1,2,0.4L789.9,284l-121.1,22.6c-11.4,2.6-17.2,9.7-17.5,21.4v214.4C651.3,554.2,656.9,561.2,668.4,563.5z"/>
		<path class="st3" d="M312.2,315.8l48-9.1v260.1L311.4,556l-39.3-8.7c-2.6-0.5-3.8-2.1-3.6-4.8V328.1c-0.3-2.3,1.3-4.4,3.6-4.8
			L312.2,315.8z"/>
		
			<linearGradient id="SVGID_00000147200436233561406450000008453822583445049765_" gradientUnits="userSpaceOnUse" x1="866.1644" y1="451.3174" x2="1333.3245" y2="451.3174" gradientTransform="matrix(0.5 0 0 0.5 184.6022 210.6467)">
			<stop  offset="0" style="stop-color:#5C4998"/>
			<stop  offset="0" style="stop-color:#5C4998"/>
			<stop  offset="1" style="stop-color:#52378D"/>
		</linearGradient>
		<path style="fill:url(#SVGID_00000147200436233561406450000008453822583445049765_);" d="M668.4,563.5l100.8,22.2l-156.4,64.8
			c-0.8,0-1.2,0.4-2,0.4c-3.9-0.1-5.9-2.1-6-6V227.6c0.1-3.9,2.1-5.9,6-5.9c0.7-0.1,1.4,0.1,2,0.4L789.9,284l-121.1,22.6
			c-11.4,2.6-17.2,9.7-17.5,21.4v214.4C651.3,554.2,656.9,561.2,668.4,563.5z"/>
		
			<linearGradient id="SVGID_00000170986576816716051080000000457877711619541649_" gradientUnits="userSpaceOnUse" x1="625.5359" y1="60.2033" x2="625.5359" y2="854.2534" gradientTransform="matrix(0.5 0 0 0.5 184.6022 210.6467)">
			<stop  offset="0" style="stop-color:#8C7AB7"/>
			<stop  offset="1" style="stop-color:#5C4998"/>
			<stop  offset="1" style="stop-color:#5C4998"/>
		</linearGradient>
		<path style="fill:url(#SVGID_00000170986576816716051080000000457877711619541649_);" d="M609.4,221.7l-226.6,42.8
			c-3.7,0.8-5.6,3.1-5.6,7v322.7c0,3.8,1.8,6.1,5.4,6.9l226.6,49.5c5.6,1.1,8.4-1.2,8.3-6.9V228.8c0.1-4.7-2.2-7-6.8-7.1H609.4z"/>
		<g class="st6">
			<g>
				<defs>
					<rect id="SVGID_00000109726941008224636170000007220633259591993530_" x="382.8" y="243.1" width="209.6" height="381"/>
				</defs>
				<clipPath id="SVGID_00000016785983883334044610000005718891230944580746_">
					<use xlink:href="#SVGID_00000109726941008224636170000007220633259591993530_"  style="overflow:visible;"/>
				</clipPath>
				<g style="clip-path:url(#SVGID_00000016785983883334044610000005718891230944580746_);">
					<path class="st8" d="M407.8,302.3v263.1l68.6,14.4V290.5L407.8,302.3z M504.7,286.1v300.3l78.9,13.1V271.9L504.7,286.1z"/>
				</g>
			</g>
		</g>
		<path class="st1" d="M903.8,172.1c-0.1,19.2-6.9,35.6-20.5,49.2s-30,20.3-49.3,20.3c-19.2,0-35.6-6.8-49.2-20.4
			s-20.4-30-20.4-49.2c0-19.2,6.8-35.6,20.3-49.2s29.9-20.5,49.2-20.5c19.3-0.1,35.8,6.8,49.5,20.4S903.8,152.7,903.8,172.1z"/>
		<path class="st1" d="M523,724.9c0,19.3-6.8,35.8-20.5,49.4c-13.6,13.6-30.1,20.5-49.4,20.5c-19.3,0-35.8-6.8-49.4-20.5
			s-20.5-30.1-20.5-49.4s6.8-35.8,20.5-49.4s30.1-20.5,49.4-20.5c19.3,0,35.8,6.8,49.4,20.5C516.1,689.1,523,705.6,523,724.9z"/>
		<path class="st9" d="M983.2,356.3v152.6c0.1,3.5-2,6.7-5.3,7.9l-30.4,12.5l-121.9,50.3h-0.4c-0.5,0.1-1,0.1-1.5,0
			c-2.6,0-4-1.3-4-4V298.5c0-1.5,0.8-2.8,2.2-3.5h0.8c0.2-0.1,0.5-0.1,0.8,0c0.5,0,0.9,0.1,1.3,0.3h0.9l119.9,41.5l31.8,11.1
			C981.3,349.3,983.3,352.1,983.2,356.3L983.2,356.3z"/>
		<path class="st3" d="M822.8,294.8l-150.9,28.4c-2.3,0.3-3.9,2.3-3.7,4.6v214.8c-0.2,2.3,1.4,4.3,3.6,4.6l150.9,33
			c3,0.7,4.8-0.5,5.4-3.6c0-0.3,0-0.7,0-1V299.4c0-3.1-1.5-4.6-4.6-4.7C823.3,294.7,823,294.7,822.8,294.8L822.8,294.8z"/>
	</g>
</g>
</svg>
